<svg xmlns="http://www.w3.org/2000/svg" xmlns:xlink="http://www.w3.org/1999/xlink" width="500" zoomAndPan="magnify" viewBox="0 0 375 374.999991" height="500" preserveAspectRatio="xMidYMid meet" version="1.0"><defs><g/><clipPath id="2bbaebc572"><path d="M 112.5 207.273438 L 262.5 207.273438 L 262.5 208 L 112.5 208 Z M 112.5 207.273438 " clip-rule="nonzero"/></clipPath></defs><g fill="#ffffff" fill-opacity="1"><g transform="translate(113.496414, 195.025314)"><g><path d="M 34.90625 0 L 2.09375 0 L 18.5 -35.546875 Z M 5 -1.84375 L 32 -1.84375 L 18.5 -31.15625 Z M 5 -1.84375 "/></g></g></g><g fill="#ffffff" fill-opacity="1"><g transform="translate(150.490686, 195.025314)"><g><path d="M 29.046875 -32.953125 L 6.15625 -32.953125 L 6.15625 -34.796875 L 31.453125 -34.796875 L 31.453125 0 L 5.59375 0 L 5.59375 -1.84375 Z M 29.59375 -1.84375 L 29.59375 -30.59375 L 7.90625 -1.84375 Z M 29.59375 -1.84375 "/></g></g></g><g fill="#ffffff" fill-opacity="1"><g transform="translate(187.484958, 195.025314)"><g><path d="M 7.25 -26 L 7.25 -34.796875 L 29.75 -34.796875 L 29.75 -26 L 19.40625 -26 L 19.40625 -8.796875 L 29.75 -8.796875 L 29.75 0 L 7.25 0 L 7.25 -8.796875 L 17.59375 -8.796875 L 17.59375 -26 Z M 7.25 -26 "/></g></g></g><g fill="#ffffff" fill-opacity="1"><g transform="translate(224.479229, 195.025314)"><g><path d="M 3.65625 -34.796875 L 33.34375 -34.796875 L 19.453125 -14.25 L 19.453125 0 L 17.59375 0 L 17.59375 -14.25 Z M 3.65625 -34.796875 "/></g></g></g><g clip-path="url(#2bbaebc572)"><path fill="#ff743f" d="M 112.5 207.304688 L 262.5 207.304688 L 262.5 207.996094 L 112.5 207.996094 Z M 112.5 207.304688 " fill-opacity="1" fill-rule="nonzero"/></g><g fill="#ffffff" fill-opacity="1"><g transform="translate(166.317182, 226.424664)"><g><path d="M 8.953125 -4.015625 C 8.953125 -3.429688 8.847656 -2.882812 8.640625 -2.375 C 8.429688 -1.875 8.140625 -1.4375 7.765625 -1.0625 C 7.398438 -0.695312 6.96875 -0.40625 6.46875 -0.1875 C 5.976562 0.0195312 5.445312 0.125 4.875 0.125 C 4.269531 0.125 3.703125 0.015625 3.171875 -0.203125 C 2.640625 -0.429688 2.179688 -0.738281 1.796875 -1.125 C 1.410156 -1.519531 1.101562 -1.976562 0.875 -2.5 C 0.644531 -3.03125 0.53125 -3.597656 0.53125 -4.203125 C 0.53125 -4.796875 0.640625 -5.359375 0.859375 -5.890625 C 1.085938 -6.421875 1.394531 -6.878906 1.78125 -7.265625 C 2.164062 -7.648438 2.625 -7.957031 3.15625 -8.1875 C 3.6875 -8.414062 4.253906 -8.53125 4.859375 -8.53125 C 5.503906 -8.53125 6.113281 -8.40625 6.6875 -8.15625 C 7.269531 -7.914062 7.765625 -7.582031 8.171875 -7.15625 L 7.546875 -6.515625 C 7.222656 -6.878906 6.820312 -7.164062 6.34375 -7.375 C 5.863281 -7.582031 5.367188 -7.6875 4.859375 -7.6875 C 4.378906 -7.6875 3.929688 -7.59375 3.515625 -7.40625 C 3.097656 -7.226562 2.738281 -6.984375 2.4375 -6.671875 C 2.132812 -6.367188 1.894531 -6.003906 1.71875 -5.578125 C 1.550781 -5.148438 1.46875 -4.691406 1.46875 -4.203125 C 1.46875 -3.710938 1.550781 -3.253906 1.71875 -2.828125 C 1.894531 -2.398438 2.132812 -2.03125 2.4375 -1.71875 C 2.738281 -1.414062 3.097656 -1.171875 3.515625 -0.984375 C 3.929688 -0.804688 4.378906 -0.71875 4.859375 -0.71875 C 5.285156 -0.71875 5.679688 -0.789062 6.046875 -0.9375 C 6.421875 -1.082031 6.742188 -1.28125 7.015625 -1.53125 C 7.296875 -1.78125 7.523438 -2.082031 7.703125 -2.4375 C 7.878906 -2.789062 7.984375 -3.171875 8.015625 -3.578125 L 5 -3.578125 L 5 -4.390625 L 8.953125 -4.390625 Z M 8.953125 -4.015625 "/></g></g></g><g fill="#ffffff" fill-opacity="1"><g transform="translate(175.773205, 226.424664)"><g><path d="M 0.046875 0 L 3.546875 -8.40625 L 4.65625 -8.40625 L 8.09375 0 L 7.09375 0 L 6.03125 -2.640625 L 2.078125 -2.640625 L 1.015625 0 Z M 2.40625 -3.4375 L 5.71875 -3.4375 L 4.0625 -7.53125 Z M 2.40625 -3.4375 "/></g></g></g><g fill="#ffffff" fill-opacity="1"><g transform="translate(183.921226, 226.424664)"><g><path d="M 5.078125 -0.59375 L 1.78125 -7.328125 L 1.78125 0 L 0.921875 0 L 0.921875 -8.40625 L 2.21875 -8.40625 L 5.09375 -2.4375 L 7.9375 -8.40625 L 9.234375 -8.40625 L 9.234375 0 L 8.359375 0 L 8.359375 -7.34375 Z M 5.078125 -0.59375 "/></g></g></g><g fill="#ffffff" fill-opacity="1"><g transform="translate(194.08525, 226.424664)"><g><path d="M 0.921875 0 L 0.921875 -8.40625 L 6.9375 -8.40625 L 6.9375 -7.578125 L 1.84375 -7.578125 L 1.84375 -4.640625 L 5.171875 -4.640625 L 5.171875 -3.84375 L 1.84375 -3.84375 L 1.84375 -0.8125 L 6.984375 -0.8125 L 6.984375 0 Z M 0.921875 0 "/></g></g></g><g fill="#ffffff" fill-opacity="1"><g transform="translate(201.477263, 226.424664)"><g><path d="M 0.125 -1.4375 L 0.75 -2.078125 C 1.175781 -1.617188 1.632812 -1.269531 2.125 -1.03125 C 2.625 -0.800781 3.144531 -0.6875 3.6875 -0.6875 C 4.34375 -0.6875 4.878906 -0.84375 5.296875 -1.15625 C 5.722656 -1.46875 5.9375 -1.863281 5.9375 -2.34375 C 5.9375 -2.769531 5.785156 -3.097656 5.484375 -3.328125 C 5.191406 -3.566406 4.703125 -3.742188 4.015625 -3.859375 L 2.796875 -4.046875 C 1.984375 -4.171875 1.382812 -4.40625 1 -4.75 C 0.625 -5.101562 0.4375 -5.578125 0.4375 -6.171875 C 0.4375 -6.867188 0.707031 -7.429688 1.25 -7.859375 C 1.789062 -8.296875 2.503906 -8.515625 3.390625 -8.515625 C 3.972656 -8.515625 4.550781 -8.414062 5.125 -8.21875 C 5.695312 -8.03125 6.222656 -7.753906 6.703125 -7.390625 L 6.171875 -6.671875 C 5.710938 -7.015625 5.242188 -7.273438 4.765625 -7.453125 C 4.296875 -7.628906 3.820312 -7.71875 3.34375 -7.71875 C 2.75 -7.71875 2.265625 -7.578125 1.890625 -7.296875 C 1.515625 -7.023438 1.328125 -6.671875 1.328125 -6.234375 C 1.328125 -5.847656 1.457031 -5.550781 1.71875 -5.34375 C 1.988281 -5.132812 2.425781 -4.984375 3.03125 -4.890625 L 4.234375 -4.6875 C 5.148438 -4.539062 5.816406 -4.28125 6.234375 -3.90625 C 6.648438 -3.539062 6.859375 -3.035156 6.859375 -2.390625 C 6.859375 -2.023438 6.78125 -1.6875 6.625 -1.375 C 6.46875 -1.0625 6.25 -0.796875 5.96875 -0.578125 C 5.6875 -0.359375 5.347656 -0.1875 4.953125 -0.0625 C 4.554688 0.0625 4.117188 0.125 3.640625 0.125 C 2.984375 0.125 2.347656 -0.0078125 1.734375 -0.28125 C 1.117188 -0.550781 0.582031 -0.9375 0.125 -1.4375 Z M 0.125 -1.4375 "/></g></g></g></svg>