<svg xmlns="http://www.w3.org/2000/svg" xmlns:xlink="http://www.w3.org/1999/xlink" width="500" zoomAndPan="magnify" viewBox="0 0 375 374.999991" height="500" preserveAspectRatio="xMidYMid meet" version="1.0"><defs><g/><clipPath id="7d78142e91"><path d="M 11.390625 228.578125 L 363.890625 228.578125 L 363.890625 230.078125 L 11.390625 230.078125 Z M 11.390625 228.578125 " clip-rule="nonzero"/></clipPath></defs><g fill="#ffffff" fill-opacity="1"><g transform="translate(13.729615, 199.813852)"><g><path d="M 81.9375 0 L 4.9375 0 L 43.4375 -83.46875 Z M 11.734375 -4.34375 L 75.125 -4.34375 L 43.4375 -73.140625 Z M 11.734375 -4.34375 "/></g></g></g><g fill="#ffffff" fill-opacity="1"><g transform="translate(100.59715, 199.813852)"><g><path d="M 68.203125 -77.359375 L 14.4375 -77.359375 L 14.4375 -81.703125 L 73.84375 -81.703125 L 73.84375 0 L 13.140625 0 L 13.140625 -4.34375 Z M 69.5 -4.34375 L 69.5 -71.84375 L 18.546875 -4.34375 Z M 69.5 -4.34375 "/></g></g></g><g fill="#ffffff" fill-opacity="1"><g transform="translate(187.464686, 199.813852)"><g><path d="M 17.015625 -61.046875 L 17.015625 -81.703125 L 69.84375 -81.703125 L 69.84375 -61.046875 L 45.546875 -61.046875 L 45.546875 -20.65625 L 69.84375 -20.65625 L 69.84375 0 L 17.015625 0 L 17.015625 -20.65625 L 41.328125 -20.65625 L 41.328125 -61.046875 Z M 17.015625 -61.046875 "/></g></g></g><g fill="#ffffff" fill-opacity="1"><g transform="translate(274.332221, 199.813852)"><g><path d="M 8.5625 -81.703125 L 78.296875 -81.703125 L 45.671875 -33.453125 L 45.671875 0 L 41.328125 0 L 41.328125 -33.453125 Z M 8.5625 -81.703125 "/></g></g></g><g clip-path="url(#7d78142e91)"><path fill="#ff743f" d="M 11.390625 228.648438 L 363.609375 228.648438 L 363.609375 230.265625 L 11.390625 230.265625 Z M 11.390625 228.648438 " fill-opacity="1" fill-rule="nonzero"/></g><g fill="#ffffff" fill-opacity="1"><g transform="translate(137.7599, 273.543776)"><g><path d="M 21.015625 -9.4375 C 21.015625 -8.0625 20.769531 -6.773438 20.28125 -5.578125 C 19.789062 -4.390625 19.113281 -3.363281 18.25 -2.5 C 17.382812 -1.644531 16.367188 -0.960938 15.203125 -0.453125 C 14.046875 0.0546875 12.789062 0.3125 11.4375 0.3125 C 10.03125 0.3125 8.703125 0.046875 7.453125 -0.484375 C 6.203125 -1.023438 5.117188 -1.75 4.203125 -2.65625 C 3.296875 -3.570312 2.570312 -4.648438 2.03125 -5.890625 C 1.5 -7.128906 1.234375 -8.453125 1.234375 -9.859375 C 1.234375 -11.265625 1.492188 -12.585938 2.015625 -13.828125 C 2.546875 -15.066406 3.265625 -16.140625 4.171875 -17.046875 C 5.085938 -17.960938 6.171875 -18.6875 7.421875 -19.21875 C 8.671875 -19.757812 10 -20.03125 11.40625 -20.03125 C 12.925781 -20.03125 14.363281 -19.742188 15.71875 -19.171875 C 17.070312 -18.597656 18.226562 -17.804688 19.1875 -16.796875 L 17.71875 -15.296875 C 16.96875 -16.160156 16.03125 -16.832031 14.90625 -17.3125 C 13.78125 -17.789062 12.613281 -18.03125 11.40625 -18.03125 C 10.28125 -18.03125 9.226562 -17.816406 8.25 -17.390625 C 7.28125 -16.972656 6.441406 -16.398438 5.734375 -15.671875 C 5.023438 -14.953125 4.460938 -14.085938 4.046875 -13.078125 C 3.640625 -12.078125 3.4375 -11.003906 3.4375 -9.859375 C 3.4375 -8.710938 3.640625 -7.632812 4.046875 -6.625 C 4.460938 -5.625 5.023438 -4.757812 5.734375 -4.03125 C 6.441406 -3.3125 7.28125 -2.738281 8.25 -2.3125 C 9.226562 -1.894531 10.28125 -1.6875 11.40625 -1.6875 C 12.40625 -1.6875 13.335938 -1.851562 14.203125 -2.1875 C 15.078125 -2.53125 15.835938 -3 16.484375 -3.59375 C 17.140625 -4.1875 17.671875 -4.894531 18.078125 -5.71875 C 18.492188 -6.539062 18.738281 -7.429688 18.8125 -8.390625 L 11.75 -8.390625 L 11.75 -10.3125 L 21.015625 -10.3125 Z M 21.015625 -9.4375 "/></g></g></g><g fill="#ffffff" fill-opacity="1"><g transform="translate(159.963918, 273.543776)"><g><path d="M 0.109375 0 L 8.3125 -19.71875 L 10.9375 -19.71875 L 19.015625 0 L 16.65625 0 L 14.171875 -6.203125 L 4.875 -6.203125 L 2.359375 0 Z M 5.640625 -8.0625 L 13.40625 -8.0625 L 9.546875 -17.6875 Z M 5.640625 -8.0625 "/></g></g></g><g fill="#ffffff" fill-opacity="1"><g transform="translate(179.09657, 273.543776)"><g><path d="M 11.921875 -1.40625 L 4.203125 -17.21875 L 4.203125 0 L 2.171875 0 L 2.171875 -19.71875 L 5.21875 -19.71875 L 11.9375 -5.71875 L 18.65625 -19.71875 L 21.6875 -19.71875 L 21.6875 0 L 19.640625 0 L 19.640625 -17.234375 Z M 11.921875 -1.40625 "/></g></g></g><g fill="#ffffff" fill-opacity="1"><g transform="translate(202.963067, 273.543776)"><g><path d="M 2.171875 0 L 2.171875 -19.71875 L 16.28125 -19.71875 L 16.28125 -17.796875 L 4.34375 -17.796875 L 4.34375 -10.90625 L 12.140625 -10.90625 L 12.140625 -9.015625 L 4.34375 -9.015625 L 4.34375 -1.921875 L 16.390625 -1.921875 L 16.390625 0 Z M 2.171875 0 "/></g></g></g><g fill="#ffffff" fill-opacity="1"><g transform="translate(220.32051, 273.543776)"><g><path d="M 0.3125 -3.375 L 1.75 -4.875 C 2.757812 -3.800781 3.84375 -2.988281 5 -2.4375 C 6.15625 -1.882812 7.375 -1.609375 8.65625 -1.609375 C 10.1875 -1.609375 11.445312 -1.972656 12.4375 -2.703125 C 13.4375 -3.429688 13.9375 -4.363281 13.9375 -5.5 C 13.9375 -6.507812 13.582031 -7.285156 12.875 -7.828125 C 12.175781 -8.378906 11.019531 -8.785156 9.40625 -9.046875 L 6.5625 -9.5 C 4.664062 -9.789062 3.265625 -10.34375 2.359375 -11.15625 C 1.460938 -11.976562 1.015625 -13.085938 1.015625 -14.484375 C 1.015625 -16.117188 1.648438 -17.441406 2.921875 -18.453125 C 4.203125 -19.460938 5.875 -19.96875 7.9375 -19.96875 C 9.3125 -19.96875 10.675781 -19.742188 12.03125 -19.296875 C 13.382812 -18.847656 14.613281 -18.203125 15.71875 -17.359375 L 14.484375 -15.65625 C 13.410156 -16.46875 12.316406 -17.078125 11.203125 -17.484375 C 10.097656 -17.898438 8.984375 -18.109375 7.859375 -18.109375 C 6.453125 -18.109375 5.3125 -17.785156 4.4375 -17.140625 C 3.5625 -16.492188 3.125 -15.664062 3.125 -14.65625 C 3.125 -13.726562 3.429688 -13.019531 4.046875 -12.53125 C 4.671875 -12.039062 5.695312 -11.6875 7.125 -11.46875 L 9.9375 -11.015625 C 12.082031 -10.660156 13.644531 -10.050781 14.625 -9.1875 C 15.613281 -8.320312 16.109375 -7.128906 16.109375 -5.609375 C 16.109375 -4.742188 15.925781 -3.945312 15.5625 -3.21875 C 15.195312 -2.5 14.679688 -1.878906 14.015625 -1.359375 C 13.347656 -0.847656 12.546875 -0.445312 11.609375 -0.15625 C 10.679688 0.132812 9.664062 0.28125 8.5625 0.28125 C 7 0.28125 5.5 -0.03125 4.0625 -0.65625 C 2.632812 -1.289062 1.382812 -2.195312 0.3125 -3.375 Z M 0.3125 -3.375 "/></g></g></g></svg>